<?xml version="1.0" encoding="UTF-8"?>
<svg viewBox="0 0 326 191" xmlns="http://www.w3.org/2000/svg">
<metadata>
<x:xmpmeta x:xmptk="Adobe XMP Core 5.6-c142 79.160924, 2017/07/13-01:06:39        " xmlns:x="adobe:ns:meta/">
<rdf:RDF xmlns:rdf="http://www.w3.org/1999/02/22-rdf-syntax-ns#">
<rdf:Description rdf:about=""/>
</rdf:RDF>
</x:xmpmeta>
</metadata>
<defs>
<style>.cls-1 {
        fill: #c82749;
      }
      .cls-1, .cls-10, .cls-11, .cls-12, .cls-13, .cls-14, .cls-15, .cls-16, .cls-17, .cls-18, .cls-19, .cls-2, .cls-3, .cls-4, .cls-5, .cls-6, .cls-7, .cls-8, .cls-9 {
        fill-rule: evenodd;
      }
      .cls-2 {
        fill: #d73759;
      }
      .cls-3 {
        fill: #c62646;
      }
      .cls-4 {
        fill: #c42442;
      }
      .cls-5 {
        fill: #c92947;
      }
      .cls-6 {
        fill: #a62d42;
      }
      .cls-7 {
        fill: #d13153;
      }
      .cls-8 {
        fill: #ca2a4b;
      }
      .cls-9 {
        fill: #b12641;
      }
      .cls-10 {
        fill: #a12a40;
      }
      .cls-11 {
        fill: #9b0c2a;
      }
      .cls-12 {
        fill: #b71738;
      }
      .cls-13 {
        fill: #98293f;
      }
      .cls-14 {
        fill: #9c1632;
      }
      .cls-15 {
        fill: #97233b;
      }
      .cls-16 {
        fill: #94283c;
      }
      .cls-17 {
        fill: #a0283d;
      }
      .cls-18 {
        fill: #8f2639;
      }
      .cls-19 {
        fill: #8a1f30;
      }</style>
</defs>
<path class="cls-1" transform="translate(-633 -998)" d="m660.79 1141.6 27.784-48.23h-55.568l27.784 48.23"/>
<path class="cls-2" transform="translate(-633 -998)" d="m714.23 1141.6 27.784-48.23h-55.568l27.784 48.23" data-name="Shape 2 copy 2"/>
<path class="cls-3" transform="translate(-633 -998)" d="m767.68 1141.6 27.783-48.23h-55.567l27.784 48.23" data-name="Shape 2 copy 4"/>
<path class="cls-4" transform="translate(-633 -998)" d="m821.12 1141.6 27.782-48.23h-55.566l27.784 48.23" data-name="Shape 2 copy 6"/>
<path class="cls-4" transform="translate(-633 -998)" d="m847.84 1094.5 27.784-48.22h-55.567l27.783 48.22" data-name="Shape 2 copy 13"/>
<path class="cls-4" transform="translate(-633 -998)" d="m875.63 1047.3 27.783-48.223h-55.567l27.784 48.223" data-name="Shape 2 copy 17"/>
<path class="cls-4" transform="translate(-633 -998)" d="m931.21 1047.3 27.784-48.223h-55.568l27.784 48.223" data-name="Shape 2 copy 22"/>
<path class="cls-4" transform="translate(-633 -998)" d="m902.35 1094.5 27.784-48.22h-55.568l27.784 48.22" data-name="Shape 2 copy 16"/>
<path class="cls-4" transform="translate(-633 -998)" d="m957.93 1094.5-6e-3 -48.22h-27.778l27.784 48.22" data-name="Shape 2 copy 20"/>
<path class="cls-5" transform="translate(-633 -998)" d="m821.12 1045.2 27.784 48.22h-55.568l27.784-48.22" data-name="Shape 2 copy 7"/>
<path class="cls-6" transform="translate(-633 -998)" d="m874.56 1045.2 27.783 48.22h-55.567l27.784-48.22" data-name="Shape 2 copy 15"/>
<path class="cls-6" transform="translate(-633 -998)" d="m930.14 1045.2 27.784 48.22h-55.568l27.784-48.22" data-name="Shape 2 copy 19"/>
<path class="cls-6" transform="translate(-633 -998)" d="m903.42 998 27.78 48.225h-55.564l27.784-48.225" data-name="Shape 2 copy 18"/>
<path class="cls-6" transform="translate(-633 -998)" d="m957.93 999.08-6e-3 47.153h-28.846l28.852-47.153" data-name="Shape 2 copy 23"/>
<path class="cls-5" transform="translate(-633 -998)" d="m848.91 999.08 26.715 47.153h-55.567l28.852-47.153" data-name="Shape 2 copy 14"/>
<path class="cls-7" transform="translate(-633 -998)" d="m687.51 1093.4 27.783 48.23h-55.567l27.784-48.23" data-name="Shape 2 copy"/>
<path class="cls-8" transform="translate(-633 -998)" d="m740.95 1093.4 27.784 48.23h-55.568l27.784-48.23" data-name="Shape 2 copy 3"/>
<path class="cls-9" transform="translate(-633 -998)" d="m794.4 1093.4 27.783 48.23h-55.57l27.787-48.23" data-name="Shape 2 copy 5"/>
<path class="cls-8" transform="translate(-633 -998)" d="m740.95 1093.4 27.784 48.23h-55.568l27.784-48.23" data-name="Shape 2 copy 11"/>
<path class="cls-2" transform="translate(-633 -998)" d="m874.56 1141.6 27.783-48.23h-55.567l27.784 48.23" data-name="Shape 2 copy 10"/>
<path class="cls-3" transform="translate(-633 -998)" d="m928 1141.6 27.784-48.23h-55.564l27.78 48.23" data-name="Shape 2 copy 10"/>
<path class="cls-10" transform="translate(-633 -998)" d="m847.84 1093.4 27.784 48.23h-55.567l27.783-48.23" data-name="Shape 2 copy 10"/>
<path class="cls-9" transform="translate(-633 -998)" d="m957.93 1090.2-6e-3 51.44h-30.984l30.99-51.44" data-name="Shape 2 copy 10"/>
<path class="cls-8" transform="translate(-633 -998)" d="M901.282,1093.4l27.784,48.23H873.5l27.784-48.23" data-name="Shape 2 copy 12"/>
<path class="cls-11" transform="translate(-633 -998)" d="M688.58,1188.86l27.784-48.22H660.8l27.783,48.22" data-name="Shape 2 copy 8"/>
<path class="cls-12" transform="translate(-633 -998)" d="m742.02 1188.9 27.784-48.22h-55.568l27.784 48.22" data-name="Shape 2 copy 8"/>
<path class="cls-13" transform="translate(-633 -998)" d="m795.47 1188.9 27.783-48.22h-55.567l27.784 48.22" data-name="Shape 2 copy 8"/>
<path class="cls-14" transform="translate(-633 -998)" d="m715.3 1140.6 27.783 48.22h-55.565l27.784-48.22" data-name="Shape 2 copy 8"/>
<path class="cls-15" transform="translate(-633 -998)" d="m768.74 1140.6 27.784 48.22h-55.568l27.784-48.22" data-name="Shape 2 copy 8"/>
<path class="cls-16" transform="translate(-633 -998)" d="m822.19 1140.6 27.784 48.22h-55.571l27.784-48.22" data-name="Shape 2 copy 8"/>
<path class="cls-10" transform="translate(-633 -998)" d="m847.84 1188.9 27.784-48.22h-55.567l27.783 48.22" data-name="Shape 2 copy 9"/>
<path class="cls-17" transform="translate(-633 -998)" d="m901.28 1188.9 27.784-48.22h-55.566l27.784 48.22" data-name="Shape 2 copy 9"/>
<path class="cls-3" transform="translate(-633 -998)" d="m957.93 1188.9-6e-3 -48.22h-30.984s22.508 39.42 27.842 47.72c0.648 1.01 3.148 0.5 3.148 0.5" data-name="Shape 2 copy 9"/>
<path class="cls-18" transform="translate(-633 -998)" d="m874.56 1140.6 27.783 48.22h-55.567l27.784-48.22" data-name="Shape 2 copy 9"/>
<path class="cls-19" transform="translate(-633 -998)" d="m928 1140.6 27.784 48.22h-55.564l27.78-48.22" data-name="Shape 2 copy 9"/>
</svg>
